<svg width="1280" height="820" viewBox="0 0 1280 820" fill="none" xmlns="http://www.w3.org/2000/svg">
  <defs>
    <linearGradient id="page2" x1="120" y1="30" x2="1160" y2="790" gradientUnits="userSpaceOnUse">
      <stop stop-color="#F5FAFF"/>
      <stop offset="1" stop-color="#E5EEF7"/>
    </linearGradient>
    <linearGradient id="header2" x1="470" y1="176" x2="836" y2="256" gradientUnits="userSpaceOnUse">
      <stop stop-color="#B7D6F8"/>
      <stop offset="1" stop-color="#7EAEE2"/>
    </linearGradient>
  </defs>
  <rect width="1280" height="820" fill="url(#page2)"/>
  <rect x="178" y="146" width="930" height="470" rx="28" fill="#FAFCFE"/>
  <text x="228" y="236" fill="#334B63" font-size="27" font-family="Arial, sans-serif">我想查一下这段中文是不是也可以继续翻译。</text>
  <rect x="374" y="212" width="316" height="42" rx="8" fill="#FFE892"/>
  <text x="394" y="241" fill="#334B63" font-size="27" font-family="Arial, sans-serif">这段中文是不是也可以继续翻译</text>

  <rect x="448" y="176" width="388" height="294" rx="22" fill="#F8FBFF" stroke="#BFD7F2"/>
  <path d="M448 198C448 185.85 457.85 176 470 176H814C826.15 176 836 185.85 836 198V232H448V198Z" fill="url(#header2)"/>
  <rect x="466" y="192" width="20" height="20" rx="6" fill="#D9ECFF"/>
  <text x="496" y="207" fill="#14375D" font-size="16" font-family="Arial, sans-serif" font-weight="700">中文 → English</text>
  <rect x="634" y="190" width="54" height="22" rx="11" fill="rgba(255,255,255,0.42)"/>
  <text x="648" y="205" fill="#194876" font-size="10" font-family="Arial, sans-serif" font-weight="700" letter-spacing="0.8">百度</text>
  <path d="M674 199L678 203L682 199" stroke="#194876" stroke-width="1.5" stroke-linecap="round" stroke-linejoin="round"/>
  <rect x="802" y="190" width="22" height="22" rx="11" fill="rgba(255,255,255,0.36)"/>
  <text x="809" y="206" fill="#14375D" font-size="13" font-family="Arial, sans-serif">×</text>

  <text x="468" y="276" fill="#6F88A4" font-size="11" font-family="Arial, sans-serif" font-weight="700" letter-spacing="1.4">原文</text>
  <text x="468" y="306" fill="#496680" font-size="13" font-family="Arial, sans-serif">这段中文是不是也可以继续翻译</text>
  <path d="M468 328H746" stroke="#B9D6F4" stroke-width="1.5"/>
  <text x="468" y="362" fill="#C04D45" font-size="14" font-family="Arial, sans-serif">已是母语内容，未发起翻译请求。</text>
  <rect x="468" y="392" width="92" height="34" rx="17" fill="url(#page2)" stroke="#BFD7F2"/>
  <text x="489" y="414" fill="#234D77" font-size="13" font-family="Arial, sans-serif" font-weight="700">继续翻译</text>
</svg>
